<?xml version="1.0" standalone="no"?>
<!DOCTYPE svg PUBLIC "-//W3C//DTD SVG 20010904//EN"
 "http://www.w3.org/TR/2001/REC-SVG-20010904/DTD/svg10.dtd">
<svg version="1.0" xmlns="http://www.w3.org/2000/svg"
 width="512.000000pt" height="512.000000pt" viewBox="0 0 512.000000 512.000000"
 preserveAspectRatio="xMidYMid meet">
<metadata>
Created by potrace 1.11, written by Peter Selinger 2001-2013
</metadata>
<g transform="translate(0.000000,512.000000) scale(0.100000,-0.100000)"
fill="#000000" stroke="none">
<path d="M2497 4898 c-156 -22 -318 -121 -393 -240 l-23 -37 -35 35 -34 34
-304 0 c-390 0 -370 11 -374 -215 -4 -201 7 -176 -144 -343 -55 -63 -106 -126
-112 -140 -6 -16 -10 -125 -9 -275 l0 -248 -30 28 c-17 15 -63 61 -104 101
-40 40 -75 69 -78 65 -2 -5 -3 -221 -3 -480 1 -309 -2 -473 -9 -473 -7 0 -7
-3 0 -8 12 -8 13 -281 2 -299 -5 -7 -5 -13 0 -13 4 0 8 -108 8 -239 0 -140 -4
-237 -9 -233 -5 3 -6 -1 -1 -8 10 -17 13 -300 2 -307 -4 -2 -4 -9 0 -16 11
-18 9 -477 -2 -477 -7 0 -7 -3 0 -8 6 -4 10 -122 10 -317 1 -324 4 -357 47
-417 11 -16 17 -28 14 -28 -3 0 6 -11 20 -25 14 -14 29 -25 33 -25 4 0 15 -8
25 -18 9 -11 42 -27 74 -37 31 -11 63 -26 71 -35 12 -13 13 -13 9 0 -4 12 5
15 48 15 42 0 54 -3 54 -15 0 -13 2 -13 9 -1 10 16 119 23 128 8 2 -4 10 -4
16 0 19 12 41 9 55 -7 8 -8 11 -10 8 -3 -4 6 -2 14 4 18 5 3 10 0 10 -7 0 -11
2 -11 9 0 10 16 31 12 49 -8 8 -8 11 -10 8 -3 -4 6 -2 14 4 18 5 3 10 0 10 -7
0 -8 3 -9 8 -3 12 17 82 13 82 -5 0 -12 2 -12 9 -1 13 20 151 21 151 1 0 -13
2 -13 9 -1 10 16 51 23 51 9 0 -5 8 -4 18 1 27 14 33 14 49 -6 8 -10 12 -13 9
-6 -4 6 -2 14 4 18 5 3 10 0 10 -7 0 -11 2 -11 9 0 10 16 31 12 49 -8 8 -8 11
-10 8 -3 -4 6 -2 14 4 18 5 3 10 0 10 -7 0 -8 3 -9 8 -2 8 12 81 12 101 0 8
-5 12 -5 8 0 -3 5 8 9 24 9 20 1 29 -4 29 -15 0 -13 2 -13 9 -1 10 16 119 23
128 8 2 -4 10 -4 16 0 19 12 41 9 55 -7 8 -8 11 -10 8 -3 -4 6 -2 14 4 18 5 3
10 0 10 -7 0 -11 2 -11 9 0 10 16 31 12 49 -8 8 -8 11 -10 8 -3 -4 6 -2 14 4
18 5 3 10 0 10 -7 0 -8 3 -9 8 -3 12 17 82 13 82 -5 0 -12 2 -12 9 -1 13 20
151 21 151 1 0 -13 2 -13 9 -1 10 16 51 23 51 9 0 -5 8 -4 18 1 27 14 33 14
49 -6 8 -10 12 -13 9 -6 -4 6 -2 14 4 18 5 3 10 0 10 -7 0 -11 2 -11 9 0 10
16 31 12 49 -8 8 -8 11 -10 8 -3 -4 6 -2 14 4 18 5 3 10 0 10 -7 0 -8 3 -9 8
-2 8 12 81 12 101 0 8 -5 12 -5 8 0 -3 5 8 9 24 9 16 1 29 -3 29 -8 0 -4 6 -5
12 -1 16 10 119 11 125 1 2 -4 10 -4 16 0 19 12 41 9 55 -7 8 -8 11 -10 8 -3
-4 6 -2 14 4 18 5 3 10 0 10 -7 0 -11 2 -11 9 0 10 16 31 12 49 -8 8 -8 11
-10 8 -3 -4 6 -2 14 4 18 5 3 10 0 10 -7 0 -8 3 -9 8 -3 12 17 82 13 82 -5 0
-12 2 -12 9 -1 13 20 151 21 151 1 0 -13 2 -13 9 -1 13 20 102 21 119 1 8 -8
11 -10 8 -3 -4 6 -2 14 4 18 5 3 10 0 10 -7 0 -8 3 -9 8 -3 9 12 82 13 101 1
10 -6 12 -5 7 2 -5 8 1 12 17 12 26 0 109 41 134 66 9 8 22 13 29 10 7 -3 11
0 8 8 -2 6 7 25 21 41 25 30 55 104 55 137 0 13 4 17 13 12 9 -6 9 -4 2 7 -12
16 -13 277 -2 297 5 6 4 12 -1 12 -5 0 -9 16 -8 35 0 19 6 35 11 35 7 0 7 3 0
8 -14 10 -14 874 0 884 6 5 6 8 0 8 -6 0 -10 58 -9 155 l1 156 39 34 c21 19
42 35 47 35 4 0 6 6 5 13 -2 6 5 11 14 11 10 -1 15 2 13 7 -8 12 64 81 77 73
6 -4 8 -3 5 3 -4 6 9 27 29 47 37 37 51 45 38 23 -4 -7 -3 -9 2 -4 5 5 9 14 9
20 1 7 6 11 13 9 7 -1 11 2 10 6 -4 13 105 121 116 115 5 -3 6 -1 2 6 -4 6 -1
24 7 40 27 55 1 138 -62 193 -20 17 -88 80 -151 141 -108 102 -159 137 -200
137 -18 0 -22 40 -5 52 7 5 7 8 0 8 -11 0 -14 278 -2 296 3 6 3 14 0 18 -4 4
-8 71 -9 149 -1 78 -2 144 -3 147 0 2 -32 -27 -70 -65 -38 -39 -85 -85 -104
-104 l-36 -34 -1 208 c0 213 -3 229 -44 273 -40 45 -76 52 -262 52 l-174 0 -1
28 c-3 129 -107 285 -231 348 -51 26 -151 53 -181 48 -11 -1 -19 6 -23 24 -64
293 -346 492 -637 450z"/>
<path d="M4635 2411 c-3 -5 -2 -12 3 -15 5 -3 9 1 9 9 0 17 -3 19 -12 6z"/>
<path d="M4496 2282 c-3 -5 1 -9 9 -9 8 0 12 4 9 9 -3 4 -7 8 -9 8 -2 0 -6 -4
-9 -8z"/>
<path d="M4439 2233 c-13 -17 -13 -17 6 -3 11 8 22 16 24 17 2 2 0 3 -6 3 -6
0 -17 -8 -24 -17z"/>
<path d="M973 255 c0 -8 4 -12 9 -9 5 3 6 10 3 15 -9 13 -12 11 -12 -6z"/>
<path d="M2113 195 c0 -8 4 -12 9 -9 5 3 6 10 3 15 -9 13 -12 11 -12 -6z"/>
<path d="M3073 195 c0 -8 4 -12 9 -9 5 3 6 10 3 15 -9 13 -12 11 -12 -6z"/>
<path d="M4046 198 c3 -5 10 -6 15 -3 13 9 11 12 -6 12 -8 0 -12 -4 -9 -9z"/>
<path d="M1335 180 c-3 -5 -1 -10 4 -10 6 0 11 5 11 10 0 6 -2 10 -4 10 -3 0
-8 -4 -11 -10z"/>
<path d="M2295 180 c-3 -5 -1 -10 4 -10 6 0 11 5 11 10 0 6 -2 10 -4 10 -3 0
-8 -4 -11 -10z"/>
<path d="M3154 182 c4 -3 14 -7 22 -8 9 -1 13 0 10 4 -4 3 -14 7 -22 8 -9 1
-13 0 -10 -4z"/>
<path d="M3255 180 c-3 -5 -1 -10 4 -10 6 0 11 5 11 10 0 6 -2 10 -4 10 -3 0
-8 -4 -11 -10z"/>
<path d="M3999 173 c-12 -16 -12 -17 2 -6 9 7 20 9 24 5 5 -4 5 -1 1 6 -9 16
-11 15 -27 -5z"/>
<path d="M1154 160 c0 -13 4 -16 10 -10 7 7 7 13 0 20 -6 6 -10 3 -10 -10z"/>
<path d="M4036 153 c-6 -14 -5 -15 5 -6 7 7 10 15 7 18 -3 3 -9 -2 -12 -12z"/>
<path d="M1310 126 c0 -2 7 -7 16 -10 8 -3 12 -2 9 4 -6 10 -25 14 -25 6z"/>
<path d="M2270 126 c0 -2 7 -7 16 -10 8 -3 12 -2 9 4 -6 10 -25 14 -25 6z"/>
<path d="M3230 126 c0 -2 7 -7 16 -10 8 -3 12 -2 9 4 -6 10 -25 14 -25 6z"/>
</g>
</svg>
